# xmcd CD database file
#
# Track frame offsets:
#	182
#	17847
#	30922
#	47137
#	63902
#	76767
#	90815
#	102980
#	114587
#	133670
#
# Disc length: 1992 seconds
#
# Revision: 2
# Processed by: cddbd v1.5.2PL0 Copyright (c) Steve Scherf et al.
# Submitted via: CDex 1.70beta2
#
DISCID=6d07c60a
DTITLE=Dawn Sears - What A Woman Wants To Hear
DYEAR=1991
DGENRE=Country
TTITLE0=What A Woman Wants To Hear
TTITLE1=Half As Much
TTITLE2=Tell Me I'm Crazy
TTITLE3=Old-Fashioned Broken Heart
TTITLE4=Good Goodbye
TTITLE5=He's In Dallas
TTITLE6=No More Tears
TTITLE7=Till You Come Back To Me
TTITLE8=Could Be The Mississippi
TTITLE9=Odds And Ends (Bits And Pieces)
EXTD=YEAR: 1991
EXTT0=
EXTT1=
EXTT2=
EXTT3=
EXTT4=
EXTT5=
EXTT6=
EXTT7=
EXTT8=
EXTT9=
PLAYORDER=
